<?xml version="1.0" encoding="UTF-8" standalone="no"?>
<svg width="37px" height="32px" viewBox="0 0 37 32" version="1.1" xmlns="http://www.w3.org/2000/svg" xmlns:xlink="http://www.w3.org/1999/xlink" xmlns:sketch="http://www.bohemiancoding.com/sketch/ns">
    <!-- Generator: Sketch 3.3 (11970) - http://www.bohemiancoding.com/sketch -->
    <title>noun_130439_cc</title>
    <desc>Created with Sketch.</desc>
    <defs></defs>
    <g id="Page-1" stroke="none" stroke-width="1" fill="none" fill-rule="evenodd" sketch:type="MSPage">
        <g id="noun_130439_cc" sketch:type="MSLayerGroup" fill="#FFFFFF">
            <g id="Group" sketch:type="MSShapeGroup">
                <path d="M34.949898,8.578 C34.4296327,7.806 33.7651429,7.32666667 32.974551,7.15 C28.8992653,6.24466667 24.4267959,13.708 22.266449,21.1873333 C21.6049796,23.4833333 21.1572041,25.73 20.9374694,27.8653333 C20.9012245,28.2193333 21.1972245,28.5333333 21.5981837,28.5653333 C21.9772449,28.594 22.2883469,28.3706667 22.3653673,28.0593333 L31.0815102,29.7473333 C31.0082653,30.044 31.1668367,30.3533333 31.4960612,30.476 C31.5881837,30.5106667 31.6848367,30.5266667 31.7799796,30.5266667 C32.0646531,30.5266667 32.3342245,30.3793333 32.4520204,30.1333333 C33.3619184,28.2353333 34.143449,26.164 34.7754694,23.9773333 C36.6692653,17.4186667 36.7387347,11.2293333 34.949898,8.578 L34.949898,8.578 Z M32.8220204,9.87866667 L27.7341429,27.496 C27.6601429,27.754 27.3981224,27.9253333 27.1104286,27.9253333 C27.0575714,27.9253333 27.0032041,27.92 26.9503469,27.9073333 C26.6045102,27.83 26.396102,27.52 26.484449,27.2153333 L31.5715714,9.59733333 C31.6591633,9.292 32.0095306,9.10666667 32.3561224,9.18666667 C32.7012041,9.26333333 32.9096122,9.57333333 32.8220204,9.87866667 L32.8220204,9.87866667 Z" id="Shape"></path>
                <path d="M34.4220816,31.9113333 C34.3012653,31.9113333 34.1796939,31.8846667 34.0664286,31.8293333 C19.8554082,24.8373333 5.74028571,31.7566667 5.59832653,31.8266667 C5.24720408,32.0046667 4.80169388,31.8953333 4.60385714,31.5853333 C4.4045102,31.276 4.52683673,30.8826667 4.87720408,30.708 C5.02444898,30.6333333 19.8554082,23.3613333 34.7777347,30.7053333 C35.1296122,30.878 35.2557143,31.2706667 35.0586327,31.5813333 C34.9264898,31.792 34.6773061,31.9113333 34.4220816,31.9113333 L34.4220816,31.9113333 Z" id="Shape"></path>
                <path d="M10.8621429,6.66333333 C9.00081633,6.66333333 7.48532653,7.99466667 7.48532653,9.63133333 C7.48532653,11.268 9.00081633,12.5986667 10.8621429,12.5986667 C12.7234694,12.5986667 14.2389592,11.2673333 14.2389592,9.63133333 C14.2389592,7.994 12.7234694,6.66333333 10.8621429,6.66333333 L10.8621429,6.66333333 Z" id="Shape"></path>
                <g id="Shape">
                    <g transform="translate(9.816327, 0.000000)">
                        <path d="M1.04581633,6.02333333 C0.600306122,6.02333333 0.239367347,5.70466667 0.239367347,5.31133333 L0.239367347,0.8 C0.239367347,0.406 0.600306122,0.088 1.04581633,0.088 C1.49132653,0.088 1.8515102,0.406 1.8515102,0.8 L1.8515102,5.31133333 C1.8515102,5.70533333 1.49132653,6.02333333 1.04581633,6.02333333 L1.04581633,6.02333333 Z"></path>
                        <path d="M1.04581633,19.1733333 C0.600306122,19.1733333 0.239367347,18.8546667 0.239367347,18.4626667 L0.239367347,13.9506667 C0.239367347,13.5566667 0.600306122,13.2386667 1.04581633,13.2386667 C1.49132653,13.2386667 1.8515102,13.5573333 1.8515102,13.9506667 L1.8515102,18.4626667 C1.8515102,18.8546667 1.49132653,19.1733333 1.04581633,19.1733333 L1.04581633,19.1733333 Z"></path>
                    </g>
                    <g transform="translate(0.000000, 8.666667)">
                        <path d="M20.9178367,1.676 L15.7808776,1.676 C15.3353673,1.676 14.9751837,1.35733333 14.9751837,0.964 C14.9751837,0.570666667 15.3361224,0.252 15.7808776,0.252 L20.9178367,0.252 C21.3633469,0.252 21.7235306,0.571333333 21.7235306,0.964 C21.7242857,1.358 21.3633469,1.676 20.9178367,1.676 L20.9178367,1.676 Z"></path>
                        <path d="M5.94340816,1.676 L0.805693878,1.676 C0.360938776,1.676 0,1.358 0,0.964 C0,0.570666667 0.360938776,0.252 0.805693878,0.252 L5.94340816,0.252 C6.38891837,0.252 6.74910204,0.571333333 6.74910204,0.964 C6.74910204,1.358 6.38816327,1.676 5.94340816,1.676 L5.94340816,1.676 Z"></path>
                    </g>
                </g>
                <g transform="translate(2.265306, 2.666667)" id="Shape">
                    <g>
                        <path d="M12.0740816,4.62133333 C11.8671837,4.62133333 11.6602857,4.55066667 11.5032245,4.41133333 C11.189102,4.13266667 11.1898571,3.68266667 11.5054898,3.40533333 L15.1390408,0.215333333 C15.4546735,-0.0626666667 15.9651224,-0.06 16.2792449,0.218666667 C16.5933673,0.497333333 16.5918571,0.947333333 16.2762245,1.22466667 L12.6426735,4.41466667 C12.4848571,4.55266667 12.2794694,4.62133333 12.0740816,4.62133333 L12.0740816,4.62133333 Z"></path>
                        <path d="M1.48604082,13.92 C1.27914286,13.92 1.0722449,13.8506667 0.914428571,13.7113333 C0.600306122,13.432 0.601816327,12.9813333 0.91744898,12.704 L4.5502449,9.51333333 C4.86587755,9.23533333 5.37632653,9.238 5.69044898,9.51666667 C6.00457143,9.79533333 6.00306122,10.2453333 5.68742857,10.5226667 L2.05463265,13.7133333 C1.89681633,13.8513333 1.69142857,13.92 1.48604082,13.92 L1.48604082,13.92 Z"></path>
                    </g>
                    <g>
                        <path d="M15.7076327,13.92 C15.5022449,13.92 15.2968571,13.8513333 15.1390408,13.7133333 L11.5062449,10.5226667 C11.1906122,10.2453333 11.1898571,9.79533333 11.5039796,9.51666667 C11.818102,9.23866667 12.3270408,9.236 12.6434286,9.51333333 L16.2762245,12.704 C16.5918571,12.9813333 16.5933673,13.4313333 16.2792449,13.7113333 C16.1214286,13.85 15.9145306,13.92 15.7076327,13.92 L15.7076327,13.92 Z"></path>
                        <path d="M5.11808163,4.62133333 C4.91269388,4.62133333 4.70730612,4.55266667 4.5494898,4.414 L0.91744898,1.224 C0.601816327,0.946666667 0.600306122,0.496666667 0.914428571,0.218 C1.22855102,-0.06 1.739,-0.0626666667 2.05463265,0.214666667 L5.68742857,3.40466667 C6.00306122,3.682 6.00457143,4.132 5.69044898,4.41066667 C5.53263265,4.55066667 5.32573469,4.62133333 5.11808163,4.62133333 L5.11808163,4.62133333 Z"></path>
                    </g>
                </g>
            </g>
        </g>
    </g>
</svg>